<?xml version="1.0"?>
<svg xmlns="http://www.w3.org/2000/svg" id="Layer_1_1_" enable-background="new 0 0 64 64" height="512px" viewBox="0 0 64 64" width="512px" class=""><g><path d="m17 44c0 1.13-.26 2.19-.74 3.13-1.14 2.3-3.52 3.87-6.26 3.87-3.87 0-7-3.13-7-7s3.13-7 7-7c1.41 0 2.71.41 3.8 1.12 1.93 1.25 3.2 3.41 3.2 5.88z" fill="#f6db40" data-original="#F6DB40" class="active-path" data-old_color="#f6db40" style="fill:#FFFFFF"/><path d="m37.31 49.45c1.06 1.22 1.69 2.81 1.69 4.55 0 3.87-3.13 7-7 7s-7-3.13-7-7c0-.81.14-1.58.39-2.3.48-1.41 1.4-2.6 2.6-3.44 1.13-.8 2.51-1.26 4.01-1.26 2.13 0 4.04.95 5.31 2.45z" fill="#71d2df" data-original="#71D2DF" class="" data-old_color="#71d2df" style="fill:#FFFFFF"/><path d="m54 25c3.87 0 7 3.13 7 7s-3.13 7-7 7c-1.88 0-3.58-.73-4.83-1.95-1.34-1.26-2.17-3.06-2.17-5.05 0-.32.02-.63.07-.94.2-1.56.92-2.95 1.98-4.01 1.27-1.27 3.01-2.05 4.95-2.05z" fill="#f6db40" data-original="#F6DB40" class="active-path" data-old_color="#f6db40" style="fill:#FFFFFF"/><path d="m38.93 29.94c-.45 3.42-3.38 6.06-6.93 6.06-3.87 0-7-3.13-7-7 0-1.13.26-2.19.74-3.13 1.14-2.3 3.52-3.87 6.26-3.87 3.87 0 7 3.13 7 7 0 .32-.02.63-.07.94z" fill="#db535b" data-original="#DB535B" class="" style="fill:#FFFFFF" data-old_color="#db535b"/><path d="m32 3c3.87 0 7 3.13 7 7 0 1.94-.78 3.68-2.05 4.95s-3.01 2.05-4.95 2.05c-1.41 0-2.71-.41-3.8-1.12-1.27-.82-2.26-2.04-2.78-3.49-.27-.74-.42-1.55-.42-2.39 0-3.87 3.13-7 7-7z" fill="#8360f4" data-original="#8360F4" class="" data-old_color="#8360f4" style="fill:#FFFFFF"/><path d="m16.58 15.61c.27.74.42 1.55.42 2.39 0 1.13-.26 2.19-.74 3.13-.6 1.2-1.53 2.2-2.68 2.88-1.04.63-2.27.99-3.58.99-3.87 0-7-3.13-7-7s3.13-7 7-7c3.03 0 5.6 1.92 6.58 4.61z" fill="#6599ed" data-original="#6599ED" class="" data-old_color="#6599ed" style="fill:#FFFFFF"/><path d="m13.464 36.8c-1.05-.507-2.222-.8-3.464-.8-4.411 0-8 3.589-8 8s3.589 8 8 8c2.768 0 5.211-1.414 6.648-3.557l7.557 3.783c-.13.571-.205 1.164-.205 1.774 0 4.411 3.589 8 8 8s8-3.589 8-8c0-1.658-.507-3.199-1.375-4.478l10.619-11.103c1.332.988 2.974 1.581 4.756 1.581 4.411 0 8-3.589 8-8s-3.589-8-8-8c-1.846 0-3.542.634-4.898 1.688l-10.79-10.79c1.054-1.356 1.688-3.052 1.688-4.898 0-4.411-3.589-8-8-8s-8 3.589-8 8c0 .608.074 1.199.204 1.769l-7.092 2.584c-1.329-2.581-4.015-4.353-7.112-4.353-4.411 0-8 3.589-8 8s3.589 8 8 8c1.138 0 2.219-.242 3.2-.673l3.681 6.195zm-3.464 13.2c-3.309 0-6-2.691-6-6s2.691-6 6-6 6 2.691 6 6-2.691 6-6 6zm7.539-3.349c.293-.831.461-1.721.461-2.651 0-2.453-1.112-4.649-2.855-6.117l2.876-4.442 8.671 14.591c-.73.65-1.341 1.428-1.794 2.303zm14.461-28.651c1.846 0 3.542-.634 4.898-1.688l10.791 10.791c-.647.832-1.131 1.793-1.41 2.839l-6.282-.864c-.001-.026.003-.052.003-.078 0-4.411-3.589-8-8-8-2.768 0-5.212 1.414-6.648 3.557l-1.193-.596 4.378-6.761c1.049.507 2.221.8 3.463.8zm1 28.069v-9.139c3.25-.408 5.894-2.77 6.722-5.872l6.282.864c0 .026-.004.052-.004.078 0 1.91.674 3.663 1.795 5.04l-10.5 10.979c-1.177-1.043-2.658-1.744-4.295-1.95zm-1-23.069c3.309 0 6 2.691 6 6s-2.691 6-6 6-6-2.691-6-6 2.691-6 6-6zm-7.539 3.349c-.293.831-.461 1.721-.461 2.651 0 4.072 3.06 7.436 7 7.931v9.139c-.948.119-1.843.403-2.658.824l-9.108-15.327 3.831-5.916zm7.539 33.651c-3.309 0-6-2.691-6-6s2.691-6 6-6 6 2.691 6 6-2.691 6-6 6zm22-34c3.309 0 6 2.691 6 6s-2.691 6-6 6-6-2.691-6-6 2.691-6 6-6zm-22-22c3.309 0 6 2.691 6 6s-2.691 6-6 6-6-2.691-6-6 2.691-6 6-6zm-7.111 9.647c.489.949 1.158 1.788 1.967 2.47l-4.496 6.944-4.82-2.41c.292-.831.46-1.721.46-2.651 0-.608-.074-1.199-.204-1.769zm-20.889 4.353c0-3.309 2.691-6 6-6s6 2.691 6 6-2.691 6-6 6-6-2.691-6-6zm10.915 6.299c.67-.524 1.258-1.148 1.733-1.856l4.617 2.308-3.171 4.897z" fill="#1a1a1a" data-original="#1A1A1A" class="" data-old_color="#1a1a1a" style="fill:#FFFFFF"/></g> </svg>
